<?xml version="1.0" encoding="UTF-8"?>
<svg version="1.1" xmlns="http://www.w3.org/2000/svg" width="48" height="48">
<path d="M0 0 C15.84 0 31.68 0 48 0 C48 15.84 48 31.68 48 48 C32.16 48 16.32 48 0 48 C0 32.16 0 16.32 0 0 Z " fill="#000003" transform="translate(0,0)"/>
<path d="M0 0 C0.66 0 1.32 0 2 0 C2 0.66 2 1.32 2 2 C2.804375 2.12375 3.60875 2.2475 4.4375 2.375 C5.283125 2.58125 6.12875 2.7875 7 3 C7.33 3.66 7.66 4.32 8 5 C7.01 5.66 6.02 6.32 5 7 C6.32 8.32 7.64 9.64 9 11 C8.67 11.66 8.34 12.32 8 13 C8.99 13.33 9.98 13.66 11 14 C11 14.66 11 15.32 11 16 C7.70450534 17.72264494 4.66881155 19.29445932 1 20 C1 20.99 1 21.98 1 23 C-0.65 23.33 -2.3 23.66 -4 24 C-4.66 22.68 -5.32 21.36 -6 20 C-6.99 20 -7.98 20 -9 20 C-9 19.34 -9 18.68 -9 18 C-10.299375 18.020625 -11.59875 18.04125 -12.9375 18.0625 C-14.29165633 18.08399454 -15.64756083 18.07148199 -17 18 C-18 17 -18 17 -18.0625 14.4375 C-18.041875 13.633125 -18.02125 12.82875 -18 12 C-17.01 11.67 -16.02 11.34 -15 11 C-14.67 9.35 -14.34 7.7 -14 6 C-13.01 6 -12.02 6 -11 6 C-11 5.34 -11 4.68 -11 4 C-10.28972656 3.87882812 -9.57945313 3.75765625 -8.84765625 3.6328125 C-7.92855469 3.46523438 -7.00945313 3.29765625 -6.0625 3.125 C-5.14597656 2.96257813 -4.22945312 2.80015625 -3.28515625 2.6328125 C-2.53105469 2.42398437 -1.77695312 2.21515625 -1 2 C-0.67 1.34 -0.34 0.68 0 0 Z " fill="#03072A" transform="translate(26,14)"/>
<path d="M0 0 C5.4389165 -0.21755666 9.87080814 -0.10428384 15 2 C15.33 1.34 15.66 0.68 16 0 C16.66 0.66 17.32 1.32 18 2 C19.65 2 21.3 2 23 2 C23.33 5.3 23.66 8.6 24 12 C25.32 12.33 26.64 12.66 28 13 C28 14.98 28 16.96 28 19 C27.01 19.33 26.02 19.66 25 20 C23.5 18.6875 23.5 18.6875 22 17 C22 16.01 22 15.02 22 14 C20.05990478 12.29467677 20.05990478 12.29467677 18 11 C18.99 10.01 19.98 9.02 21 8 C19.35 7.34 17.7 6.68 16 6 C16 5.34 16 4.68 16 4 C15.34 4 14.68 4 14 4 C13.67 4.99 13.34 5.98 13 7 C6.375 8 6.375 8 3 8 C3 8.66 3 9.32 3 10 C2.01 10 1.02 10 0 10 C-0.185625 11.2065625 -0.185625 11.2065625 -0.375 12.4375 C-0.58125 13.283125 -0.7875 14.12875 -1 15 C-1.99 15.495 -1.99 15.495 -3 16 C-3.65772428 19.02934491 -3.65772428 19.02934491 -4 22 C-4.66 22 -5.32 22 -6 22 C-6.52150717 16.91530509 -5.15521571 13.60742996 -2.97265625 9.1484375 C-2.04191073 7.09257389 -1.49702253 5.19406343 -1 3 C-0.67 2.01 -0.34 1.02 0 0 Z " fill="#050B2F" transform="translate(12,10)"/>
<path d="M0 0 C0.66 0 1.32 0 2 0 C2 0.66 2 1.32 2 2 C2.804375 2.12375 3.60875 2.2475 4.4375 2.375 C5.283125 2.58125 6.12875 2.7875 7 3 C7.33 3.66 7.66 4.32 8 5 C7.505 5.433125 7.01 5.86625 6.5 6.3125 C4.66781808 7.99740483 4.66781808 7.99740483 5 11 C4.01 11.33 3.02 11.66 2 12 C2.33 12.66 2.66 13.32 3 14 C1.865625 14.12375 0.73125 14.2475 -0.4375 14.375 C-2.2009375 14.684375 -2.2009375 14.684375 -4 15 C-4.33 15.66 -4.66 16.32 -5 17 C-6.32 15.68 -7.64 14.36 -9 13 C-10.98 13.99 -10.98 13.99 -13 15 C-13.66 14.34 -14.32 13.68 -15 13 C-14.01 13 -13.02 13 -12 13 C-12.33 11.68 -12.66 10.36 -13 9 C-11.68 8.34 -10.36 7.68 -9 7 C-9.66 6.01 -10.32 5.02 -11 4 C-10.28972656 3.87882812 -9.57945313 3.75765625 -8.84765625 3.6328125 C-7.92855469 3.46523438 -7.00945313 3.29765625 -6.0625 3.125 C-5.14597656 2.96257813 -4.22945312 2.80015625 -3.28515625 2.6328125 C-2.53105469 2.42398437 -1.77695312 2.21515625 -1 2 C-0.67 1.34 -0.34 0.68 0 0 Z " fill="#245095" transform="translate(26,14)"/>
<path d="M0 0 C1.32 0.66 2.64 1.32 4 2 C3.67 2.99 3.34 3.98 3 5 C3.99 5.33 4.98 5.66 6 6 C6 6.66 6 7.32 6 8 C2.04548703 9.71005966 -0.70606361 10 -5 10 C-5.33 10.66 -5.66 11.32 -6 12 C-6.66 12 -7.32 12 -8 12 C-8.1875 9.625 -8.1875 9.625 -8 7 C-7.01 6.34 -6.02 5.68 -5 5 C-4.67 4.67 -4.34 4.34 -4 4 C-2.67405895 3.63837971 -1.34061543 3.30271961 0 3 C0 2.01 0 1.02 0 0 Z " fill="#0B1B51" transform="translate(31,22)"/>
<path d="M0 0 C0 0.66 0 1.32 0 2 C0.66 2 1.32 2 2 2 C2.33 1.01 2.66 0.02 3 -1 C4.65 -1.33 6.3 -1.66 8 -2 C7.67 -0.68 7.34 0.64 7 2 C6.01 2 5.02 2 4 2 C4 2.99 4 3.98 4 5 C2.35 5.33 0.7 5.66 -1 6 C-1.66 4.68 -2.32 3.36 -3 2 C-3.99 2 -4.98 2 -6 2 C-6 1.34 -6 0.68 -6 0 C-7.32 -0.33 -8.64 -0.66 -10 -1 C-6.18510326 -2.46726798 -3.70988378 -1.43336419 0 0 Z " fill="#060D33" transform="translate(23,32)"/>
<path d="M0 0 C2.31 0.66 4.62 1.32 7 2 C7 3.65 7 5.3 7 7 C3.04 7 -0.92 7 -5 7 C-5.33 6.34 -5.66 5.68 -6 5 C-4.35 4.67 -2.7 4.34 -1 4 C-0.67 2.68 -0.34 1.36 0 0 Z " fill="#427AC3" transform="translate(24,18)"/>
<path d="M0 0 C1.134375 0.020625 2.26875 0.04125 3.4375 0.0625 C3.1075 0.7225 2.7775 1.3825 2.4375 2.0625 C1.07625 2.4646875 1.07625 2.4646875 -0.3125 2.875 C-4.10181661 4.25955799 -5.77930889 6.20606702 -8.5625 9.0625 C-10.875 9.875 -10.875 9.875 -12.5625 10.0625 C-12.8925 9.4025 -13.2225 8.7425 -13.5625 8.0625 C-12.2425 7.7325 -10.9225 7.4025 -9.5625 7.0625 C-9.5625 6.0725 -9.5625 5.0825 -9.5625 4.0625 C-8.5725 3.7325 -7.5825 3.4025 -6.5625 3.0625 C-5.9025 2.4025 -5.2425 1.7425 -4.5625 1.0625 C-3.5625 0.0625 -3.5625 0.0625 0 0 Z " fill="#03041C" transform="translate(36.5625,29.9375)"/>
<path d="M0 0 C4.875 2.625 4.875 2.625 6 6 C1.03083364 5.48594831 -3.29026351 4.76615118 -8 3 C-8 2.34 -8 1.68 -8 1 C-6.576875 1.309375 -6.576875 1.309375 -5.125 1.625 C-4.09375 1.74875 -3.0625 1.8725 -2 2 C-1.34 1.34 -0.68 0.68 0 0 Z " fill="#0C184C" transform="translate(17,26)"/>
<path d="M0 0 C0.33 1.32 0.66 2.64 1 4 C0.2575 4.144375 -0.485 4.28875 -1.25 4.4375 C-3.52027739 4.90187492 -5.75759479 5.41863569 -8 6 C-7.625 3.5625 -7.625 3.5625 -7 1 C-4.53721199 -0.231394 -2.7204945 -0.07159196 0 0 Z " fill="#121D56" transform="translate(22,13)"/>
<path d="M0 0 C0 0.66 0 1.32 0 2 C0.804375 2.12375 1.60875 2.2475 2.4375 2.375 C3.7059375 2.684375 3.7059375 2.684375 5 3 C5.33 3.66 5.66 4.32 6 5 C-0.4 6.35384615 -0.4 6.35384615 -3.4375 4.5625 C-3.953125 4.046875 -4.46875 3.53125 -5 3 C-2.25 0 -2.25 0 0 0 Z " fill="#193175" transform="translate(28,14)"/>
<path d="M0 0 C0 2.33333333 0 4.66666667 0 7 C-0.66 7.66 -1.32 8.32 -2 9 C-2.39764263 10.98821313 -2.73775349 12.98944339 -3 15 C-3.66 15 -4.32 15 -5 15 C-5.38624638 9.85004829 -4.37097727 5.55706182 -2 1 C-1.34 0.67 -0.68 0.34 0 0 Z " fill="#010218" transform="translate(11,17)"/>
<path d="M0 0 C0.33 0.66 0.66 1.32 1 2 C0.67 2.99 0.34 3.98 0 5 C0.99 5.33 1.98 5.66 3 6 C1.68 6 0.36 6 -1 6 C-1.33 5.34 -1.66 4.68 -2 4 C-3.32 4 -4.64 4 -6 4 C-6.66 3.01 -7.32 2.02 -8 1 C-5.07175348 0.02391783 -3.04386724 -0.08226668 0 0 Z " fill="#214B95" transform="translate(23,17)"/>
<path d="M0 0 C0.99 0.33 1.98 0.66 3 1 C3 2.98 3 4.96 3 7 C2.01 7.33 1.02 7.66 0 8 C-1.5 6.625 -1.5 6.625 -3 5 C-3 3 -3 3 -1.5 1.375 C-1.005 0.92125 -0.51 0.4675 0 0 Z " fill="#050A2C" transform="translate(37,22)"/>
<path d="M0 0 C3 2 3 2 4 5 C3.01 5 2.02 5 1 5 C0.67 5.66 0.34 6.32 0 7 C-0.66 7 -1.32 7 -2 7 C-2.125 4.625 -2.125 4.625 -2 2 C-1.34 1.34 -0.68 0.68 0 0 Z " fill="#173272" transform="translate(25,27)"/>
<path d="M0 0 C2.475 0.495 2.475 0.495 5 1 C5 1.66 5 2.32 5 3 C6.32 2.67 7.64 2.34 9 2 C9.33 3.32 9.66 4.64 10 6 C8.02 6 6.04 6 4 6 C4 4.68 4 3.36 4 2 C2.68 2 1.36 2 0 2 C0 1.34 0 0.68 0 0 Z " fill="#03041E" transform="translate(12,31)"/>
<path d="M0 0 C1.32 0.66 2.64 1.32 4 2 C3.67 2.99 3.34 3.98 3 5 C3.99 5.33 4.98 5.66 6 6 C4.68 6.33 3.36 6.66 2 7 C0.4375 5.1875 0.4375 5.1875 -1 3 C-0.67 2.01 -0.34 1.02 0 0 Z " fill="#233A6F" transform="translate(31,22)"/>
<path d="M0 0 C2.64 0 5.28 0 8 0 C8 1.98 8 3.96 8 6 C7.67 4.68 7.34 3.36 7 2 C5.02 2.33 3.04 2.66 1 3 C0.67 2.01 0.34 1.02 0 0 Z " fill="#000418" transform="translate(28,10)"/>
<path d="M0 0 C1.010625 0.0825 2.02125 0.165 3.0625 0.25 C3.7225 1.24 4.3825 2.23 5.0625 3.25 C3.0825 3.58 1.1025 3.91 -0.9375 4.25 C-0.9375 3.59 -0.9375 2.93 -0.9375 2.25 C-1.9275 1.92 -2.9175 1.59 -3.9375 1.25 C-2.9375 0.25 -2.9375 0.25 0 0 Z " fill="#356AB3" transform="translate(23.9375,24.75)"/>
<path d="M0 0 C0.99 0.99 1.98 1.98 3 3 C2.195625 3.12375 1.39125 3.2475 0.5625 3.375 C-0.7059375 3.684375 -0.7059375 3.684375 -2 4 C-2.33 4.66 -2.66 5.32 -3 6 C-3.33 5.34 -3.66 4.68 -4 4 C-3.67 3.01 -3.34 2.02 -3 1 C-2.01 0.67 -1.02 0.34 0 0 Z " fill="#051449" transform="translate(15,19)"/>
<path d="M0 0 C0.99 0.33 1.98 0.66 3 1 C3.33 1.99 3.66 2.98 4 4 C2.02 4.99 2.02 4.99 0 6 C-0.66 5.34 -1.32 4.68 -2 4 C-1.01 4 -0.02 4 1 4 C0.67 2.68 0.34 1.36 0 0 Z " fill="#233666" transform="translate(13,23)"/>
<path d="M0 0 C0.68707555 2.49064888 1 4.37886292 1 7 C0.01 7 -0.98 7 -2 7 C-2.6875 5.1875 -2.6875 5.1875 -3 3 C-1.5625 1.25 -1.5625 1.25 0 0 Z " fill="#00011B" transform="translate(38,15)"/>
</svg>
